PathFileType	4	(X/Y/Z)	D:/视觉行为平台/test_2/20260814/mocap/street1/street1-Unnamed.trc
DataRate	CameraRate	NumFrames	NumMarkers	Units	OrigDataRate	OrigDataStartFrame	OrigNumFrames	useTimeStamp
90	90	     31	0	mm	90	8486	     22628	         1
Frame#	Time	Timestamp	
			X1	Y1	Z1	X2	Y2	Z2	X3	Y3	Z3	X4	Y4	Z4	X5	Y5	Z5	X6	Y6	Z6	X7	Y7	Z7	X8	Y8	Z8	X9	Y9	Z9	X10	Y10	Z10	X11	Y11	Z11	X12	Y12	Z12	X13	Y13	Z13	X14	Y14	Z14	X15	Y15	Z15	X16	Y16	Z16	X17	Y17	Z17	X18	Y18	Z18	X19	Y19	Z19	X20	Y20	Z20	X21	Y21	Z21	X22	Y22	Z22	X23	Y23	Z23	X24	Y24	Z24	X25	Y25	Z25	X26	Y26	Z26	X27	Y27	Z27	X28	Y28	Z28	X29	Y29	Z29	X30	Y30	Z30	X31	Y31	Z31	X32	Y32	Z32	X33	Y33	Z33	X34	Y34	Z34	X35	Y35	Z35	X36	Y36	Z36	X37	Y37	Z37	X38	Y38	Z38	X39	Y39	Z39	X40	Y40	Z40	X41	Y41	Z41	X42	Y42	Z42	X43	Y43	Z43	X44	Y44	Z44	X45	Y45	Z45	X46	Y46	Z46	X47	Y47	Z47	X48	Y48	Z48	X49	Y49	Z49	X50	Y50	Z50	X51	Y51	Z51	X52	Y52	Z52	X53	Y53	Z53	X54	Y54	Z54	X55	Y55	Z55	

8486	94.277	1787219041291	413.093994	852.235779	-1618.783203	429.102722	770.583496	-1613.955811	448.658630	780.789856	-1661.639404	419.273224	1057.350952	-1743.334961	269.127106	43.996189	-1742.198608	428.928467	824.396484	-1699.978760	411.404175	1231.869995	-1681.482544	356.498505	1039.544922	-1747.374146	1436.441406	521.688477	1445.419434	
8487	94.288	1787219041303	413.379761	853.069519	-1615.269653	429.385040	771.172791	-1610.660156	449.269165	781.796509	-1658.054077	420.020966	1058.083740	-1739.831665	269.151459	44.094135	-1742.260498	429.713043	825.313843	-1696.409180	411.793152	1232.858887	-1677.964844	357.361420	1040.169312	-1744.158447	1436.396362	521.992432	1445.288574	
8488	94.300	1787219041314	412.738831	854.075562	-1611.554688	429.662018	772.072815	-1606.977173	449.765106	782.485046	-1654.379150	420.545959	1058.811646	-1735.930786	269.137024	44.037785	-1742.227661	430.312164	826.328979	-1692.799072	411.657043	1233.609009	-1674.294922	357.860382	1040.972168	-1741.163574	1435.932983	522.401001	1444.184570	
8489	94.311	1787219041325	412.761475	855.022522	-1607.661987	429.699432	772.861267	-1603.211060	450.156921	783.389343	-1650.406372	421.239624	1059.784912	-1732.196533	269.093903	44.097057	-1742.154419	430.877441	827.123352	-1689.009399	411.674622	1234.373413	-1670.605957	358.464935	1041.713623	-1738.141724	1436.441406	521.688477	1445.419434	
8490	94.322	1787219041336	412.795349	855.792358	-1603.967651	429.416687	773.607178	-1599.176025	450.388062	784.235962	-1646.295776	421.760101	1060.569336	-1728.335693	269.075195	44.206268	-1742.209351	431.385834	828.062988	-1684.936401	411.634399	1235.193604	-1666.617310	358.993164	1042.557617	-1734.849487	1436.173706	522.084534	1444.892212	
8491	94.333	1787219041347	412.808563	856.710999	-1599.706665	429.564911	774.551819	-1594.803711	450.374084	784.770386	-1642.032959	422.519714	1061.491943	-1724.317383	269.097260	44.195679	-1742.183960	431.880951	828.995667	-1680.758911	411.806274	1236.084961	-1662.890869	360.205261	1043.824829	-1730.412720	1436.173706	522.084534	1444.892212	
8492	94.344	1787219041358	412.640320	857.292175	-1595.366821	429.381714	775.129944	-1590.330200	450.701355	785.392456	-1637.373779	423.026245	1061.953491	-1720.099854	268.605530	43.711109	-1742.077759	432.342834	829.472839	-1676.204834	411.680267	1236.473267	-1658.669312	360.809479	1044.343994	-1726.712402	1436.725220	521.649841	1445.747437	
8493	94.355	1787219041369	412.499268	857.822571	-1590.947632	429.235474	775.749939	-1585.615845	450.795319	786.174438	-1632.418823	423.596008	1062.286377	-1715.916870	268.739929	43.786465	-1741.759399	432.814270	830.032227	-1671.508423	411.695038	1237.175903	-1654.586304	361.444763	1044.637085	-1722.927612	1436.441406	521.688477	1445.419434	
8494	94.366	1787219041381	412.377991	858.443298	-1586.166138	429.072693	776.122742	-1580.677368	450.815033	786.425964	-1627.519043	424.064270	1062.664795	-1711.752686	268.969635	43.657562	-1741.276001	433.222504	830.400757	-1666.659180	411.627075	1237.667114	-1650.459839	362.069702	1044.821655	-1718.854004	1436.313354	521.769226	1445.454102	
8495	94.377	1787219041391	412.101715	858.743530	-1581.379761	428.934875	776.804138	-1575.442017	451.077393	786.655823	-1622.334473	424.478912	1063.076660	-1707.303345	267.716797	43.206154	-1742.565186	433.495087	830.508118	-1661.535034	411.234283	1237.628052	-1646.063354	362.572540	1044.888306	-1714.839111	1436.723999	521.754333	1445.803955	
8496	94.388	1787219041403	411.828400	858.933716	-1576.382324	428.880798	777.036499	-1570.020874	451.027344	786.932922	-1616.714233	424.807983	1062.936523	-1702.831055	267.723450	43.233234	-1742.657471	433.884430	830.749817	-1656.479004	410.869202	1237.819214	-1641.658569	362.966949	1044.876953	-1710.901367	1436.723999	521.754333	1445.803955	
8497	94.400	1787219041415	411.729553	859.220886	-1571.120605	428.624817	777.624817	-1564.501953	451.145386	786.989380	-1610.939941	425.254425	1063.017944	-1698.051514	267.667572	43.086803	-1742.761353	434.220734	830.522705	-1650.862305	410.049194	1237.338989	-1637.074951	363.346161	1044.516968	-1706.661987	1436.796387	521.816223	1445.547852	
8498	94.411	1787219041425	411.529907	859.188293	-1565.842163	428.485657	777.425537	-1558.798706	451.197845	786.746765	-1605.183594	425.350311	1062.610596	-1693.304077	267.730896	43.166553	-1742.723755	434.418915	830.384155	-1645.312744	409.590118	1237.324463	-1632.583984	363.672729	1044.279907	-1702.310181	1436.680054	522.251953	1444.991699	
8499	94.422	1787219041436	411.106598	859.140442	-1560.389038	428.227966	777.478271	-1553.010132	451.263184	786.854004	-1599.436157	425.481995	1062.663452	-1688.526001	267.783234	42.983269	-1742.760742	434.588257	830.021179	-1639.702637	409.206970	1237.226807	-1627.970093	363.822357	1043.619507	-1697.577759	1436.124268	522.593323	1444.046875	
8500	94.433	1787219041447	410.589447	858.858887	-1554.949097	428.085632	777.448669	-1547.052979	451.458252	786.736755	-1593.241943	425.446716	1062.002686	-1683.395020	267.854736	43.040730	-1742.882812	434.738495	829.592834	-1633.931641	408.252838	1236.756592	-1623.085571	363.895538	1043.295410	-1693.143921	1436.203613	522.845398	1443.637451	
8501	94.444	1787219041458	410.318817	858.971375	-1549.273438	427.910248	777.489136	-1540.854980	451.357727	786.449768	-1587.219604	425.249634	1061.502319	-1678.232910	268.000092	43.085278	-1742.927490	434.689362	829.237061	-1627.966553	407.031830	1236.052002	-1618.223022	363.867523	1042.369751	-1688.211548	1436.352539	522.489990	1444.476440	
8502	94.455	1787219041469	409.813110	858.584900	-1543.629761	427.630280	777.244751	-1534.808838	451.150574	786.255554	-1580.969727	425.004395	1061.066650	-1673.019775	267.931396	42.713020	-1742.932739	434.643036	828.559143	-1622.001221	406.004120	1235.743530	-1613.317749	363.534546	1041.527100	-1683.237549	1436.459717	522.441406	1444.351440	
8503	94.466	1787219041480	409.352325	857.991211	-1537.892090	427.575745	777.168518	-1528.659546	450.973877	785.779907	-1574.908081	424.329620	1060.125610	-1667.364014	268.034424	42.756489	-1742.985107	434.535400	828.242554	-1615.985596	404.887817	1235.197754	-1608.365845	363.184204	1040.703735	-1677.875488	1436.620605	522.678650	1443.925659	
8504	94.477	1787219041492	408.528717	857.536316	-1532.021973	426.825928	776.743103	-1522.643311	450.885071	785.506470	-1568.645630	423.687866	1059.654907	-1661.935059	268.090302	42.656715	-1743.038574	434.354584	827.853027	-1610.019653	403.353363	1234.537598	-1603.124634	362.668121	1040.259644	-1672.774658	1436.374390	523.175110	1443.392578	
8505	94.488	1787219041503	407.905609	857.235107	-1526.216187	426.447815	776.532837	-1516.406982	450.357971	785.317932	-1562.438477	422.825348	1059.175415	-1656.244263	268.188782	42.619755	-1743.141235	433.984497	827.346619	-1603.948242	401.804901	1233.941162	-1597.907227	361.864502	1039.484375	-1667.122681	1436.518555	522.528198	1444.013672	
8506	94.500	1787219041514	407.016632	856.917236	-1520.240967	425.917450	776.341492	-1510.347290	449.816132	785.044189	-1556.402588	421.840332	1058.809082	-1650.361450	268.255951	42.586960	-1743.141113	433.308594	826.972534	-1597.979736	400.296539	1233.581055	-1592.554443	360.906616	1038.829224	-1661.431152	1436.290405	522.726379	1443.666748	
8507	94.511	1787219041525	406.167603	856.640869	-1514.135864	425.235657	776.051514	-1504.235352	449.243500	784.708618	-1550.071655	420.740479	1058.355103	-1644.609497	268.329010	42.555313	-1743.156006	432.718353	826.735657	-1591.908325	398.488068	1233.080444	-1586.846558	359.853210	1038.247925	-1655.856567	1436.531128	522.607483	1444.152344	
8508	94.522	1787219041536	404.861084	856.152344	-1508.202759	424.176025	775.730957	-1498.212036	448.445374	784.843689	-1544.073608	419.395996	1057.999878	-1638.578125	268.394012	42.350376	-1743.188721	432.000580	826.185486	-1585.733643	396.786804	1232.867432	-1581.342285	358.588806	1037.828979	-1649.834839	1436.302856	522.805664	1443.805542	
8509	94.533	1787219041547	403.661346	855.947693	-1502.133911	423.224396	775.689880	-1492.046387	447.472015	784.661865	-1537.903076	417.873291	1057.641602	-1632.492798	268.472046	42.358620	-1743.163086	430.673553	826.321777	-1579.546875	394.734711	1232.433838	-1575.650269	357.149811	1037.490356	-1644.121948	1436.531128	522.607483	1444.152344	
8510	94.544	1787219041558	402.212280	855.779419	-1495.998413	422.116547	775.459595	-1485.866333	446.532593	784.470886	-1531.752808	416.134613	1057.346802	-1626.203735	268.679749	42.515945	-1743.156250	429.606720	826.044556	-1573.504883	392.547485	1232.052856	-1569.709229	355.730682	1037.221558	-1637.868530	1436.518555	522.528198	1444.013672	
8511	94.555	1787219041570	400.815918	855.439026	-1489.816772	420.743591	775.223938	-1479.727905	445.095062	784.264526	-1525.606445	414.662231	1057.284912	-1620.019287	268.818146	42.402611	-1743.124512	428.366394	825.894592	-1567.166382	390.659149	1232.143555	-1563.997437	354.082397	1036.748169	-1631.704834	1436.203613	522.845398	1443.637451	
8512	94.566	1787219041580	398.922729	855.300720	-1483.492676	419.229706	774.948425	-1473.451904	443.837646	784.271362	-1519.209473	412.694794	1057.135132	-1613.630005	268.853058	42.372803	-1743.082520	426.818451	825.847717	-1560.813232	388.373810	1231.697998	-1557.891846	352.354218	1036.578979	-1625.524658	1436.302856	522.805664	1443.805542	
8513	94.577	1787219041591	397.245544	855.172119	-1477.197632	417.357483	774.672058	-1467.169800	442.008545	783.991150	-1512.854126	410.868469	1056.857544	-1607.271851	268.989075	42.483219	-1742.993530	425.417145	825.805725	-1554.333252	385.796753	1231.457886	-1551.687134	350.483978	1038.481079	-1621.493164	1436.302856	522.805664	1443.805542	
8514	94.588	1787219041603	395.391998	854.918823	-1470.829590	415.512878	774.458191	-1460.759888	440.271912	783.784180	-1506.378540	408.886658	1056.834595	-1601.075684	268.988220	42.262829	-1742.989868	423.653748	825.503113	-1547.922852	383.435730	1231.247803	-1545.525757	348.518402	1038.012451	-1615.238281	1436.531128	522.607483	1444.152344	
8515	94.600	1787219041614	393.196686	854.419312	-1464.122070	413.724670	774.239746	-1454.117920	438.330078	783.439331	-1499.864624	406.767517	1056.356567	-1594.533325	269.151764	42.287449	-1742.971313	421.717377	825.215515	-1541.308960	381.051666	1230.934448	-1539.343994	346.562958	1037.482422	-1608.753296	-131.705582	765.217346	-1606.280518	1436.463989	523.246155	1443.166016	
8516	94.611	1787219041625	391.237457	854.243225	-1457.611816	411.567535	773.911682	-1447.551514	436.348938	783.276733	-1493.034912	404.380615	1055.917847	-1588.062866	269.229706	42.243813	-1742.860107	420.000793	824.945435	-1534.680664	378.420044	1230.480469	-1533.185791	344.396790	1036.992920	-1602.538818	-134.502670	765.668640	-1600.338867	1436.906616	522.988281	1443.885498	
